<svg width="50" height="58" viewBox="0 0 75 118" fill="none" xmlns="http://www.w3.org/2000/svg">
<path d="M28.0273 35.8691C27.4131 35.8804 26.8106 35.7006 26.3032 35.3543C25.7959 35.0081 25.4087 34.5127 25.1953 33.9366C24.982 33.3606 24.9531 32.7325 25.1125 32.1393C25.272 31.5461 25.6119 31.0172 26.0853 30.6257C30.6295 26.8486 41.9318 21.7994 52.2341 29.6547C52.5631 29.884 52.8424 30.1775 53.0549 30.5176C53.2675 30.8577 53.4091 31.2373 53.471 31.6335C53.533 32.0298 53.5141 32.4344 53.4155 32.8232C53.3169 33.2119 53.1406 33.5767 52.8972 33.8955C52.6539 34.2143 52.3485 34.4805 51.9995 34.6781C51.6505 34.8757 51.2651 35.0006 50.8666 35.0453C50.468 35.09 50.0645 35.0535 49.6804 34.9381C49.2963 34.8227 48.9396 34.6307 48.6317 34.3738C39.5432 27.4312 30.2703 34.869 29.8722 35.1894C29.3518 35.6181 28.7014 35.8577 28.0273 35.8691Z" fill="#68E1FD"/>
<path d="M20.9874 26.3049C20.5978 26.3084 20.2115 26.2338 19.8512 26.0853C19.491 25.9369 19.1641 25.7177 18.8901 25.4407C18.3381 24.8842 18.0283 24.1321 18.0283 23.3482C18.0283 22.5643 18.3381 21.8122 18.8901 21.2557C19.0649 21.0907 36.1834 4.23428 58.089 19.9061C58.7328 20.3632 59.1686 21.0573 59.3007 21.8357C59.4327 22.6142 59.25 23.4132 58.7929 24.057C58.5666 24.3758 58.2797 24.6469 57.9486 24.8548C57.6175 25.0627 57.2487 25.2034 56.8632 25.2687C56.0848 25.4007 55.2858 25.2181 54.642 24.761C36.9117 12.0896 23.6577 24.9164 23.1042 25.4698C22.8255 25.7439 22.4944 25.9591 22.1307 26.1026C21.7671 26.2461 21.3783 26.3149 20.9874 26.3049Z" fill="#68E1FD"/>
<path d="M65.3228 15.1773C64.6959 15.1756 64.085 14.9787 63.575 14.6141C37.2029 -4.6406 14.7634 13.6917 13.8215 14.4879C13.216 14.9698 12.4464 15.1965 11.6764 15.1197C10.9063 15.0429 10.1966 14.6687 9.69826 14.0767C9.19987 13.4847 8.95211 12.7216 9.00768 11.9497C9.06324 11.1779 9.41775 10.4582 9.99579 9.94367C10.258 9.72034 36.8631 -12.2337 67.0803 9.81744C67.5823 10.1888 67.9546 10.7089 68.1442 11.3039C68.3338 11.8989 68.3311 12.5385 68.1365 13.1319C67.942 13.7252 67.5654 14.2422 67.0603 14.6094C66.5552 14.9766 65.9472 15.1753 65.3228 15.1773Z" fill="#68E1FD"/>
<path d="M37.7617 43.0028C32.8137 42.9423 27.903 43.8668 23.3156 45.7225C18.7283 47.5782 14.556 50.328 11.0417 53.8118C7.52744 57.2956 4.74136 61.4437 2.84574 66.0147C0.950122 70.5857 -0.0171596 75.4881 0.000230378 80.4365C0.0176204 85.385 1.01933 90.2805 2.94703 94.838C4.87473 99.3955 7.68989 103.524 11.2286 106.983C14.7673 110.442 18.9588 113.162 23.5591 114.986C28.1593 116.809 33.0764 117.699 38.0239 117.604C47.8144 117.415 57.1381 113.385 63.983 106.382C70.8279 99.3797 74.645 89.9666 74.6106 80.1743C74.5762 70.3821 70.693 60.996 63.7991 54.0417C56.9051 47.0874 47.5533 43.1226 37.7617 43.0028ZM43.2964 60.1796C43.2848 60.0757 43.3051 59.9707 43.3546 59.8786C43.4614 59.7232 43.578 59.5193 43.7333 59.4805C43.8887 59.4416 44.0537 59.6067 44.2674 59.7135C43.8693 60.1116 44.044 60.335 44.3839 60.5097C44.4661 60.5489 44.5365 60.6092 44.5878 60.6845C44.6771 60.9581 44.8011 61.2192 44.9568 61.4613C45.1881 61.6485 45.4468 61.7991 45.7238 61.908C45.4991 62.1138 45.2589 62.3021 45.0053 62.4711C44.7601 62.6202 44.4954 62.7346 44.2188 62.811C43.9929 62.8352 43.765 62.8352 43.5391 62.811C43.5431 62.769 43.5431 62.7267 43.5391 62.6848L44.0052 62.3935C43.8401 62.1895 43.5974 62.0148 43.578 61.8206C43.5585 61.6264 43.7819 61.4322 43.9178 61.2089C43.7042 60.8593 43.3935 60.7039 43.1702 60.8496C42.5099 61.2962 42.4613 61.4128 42.7623 61.8885C42.3351 62.0536 41.9176 62.2187 41.4806 62.374C41.3835 61.9177 41.9079 61.5196 41.4806 61.1118C41.569 60.9625 41.6958 60.8396 41.8478 60.7559C41.9998 60.6723 42.1714 60.6308 42.3448 60.636H42.8497C43.1216 60.6554 43.3352 60.5292 43.2964 60.1796ZM32.6155 50.6736C33.4894 50.7998 34.3633 50.8581 35.2372 50.9261C35.3962 50.9566 35.5604 50.9468 35.7147 50.8976C35.8691 50.8484 36.0087 50.7614 36.1208 50.6445C36.2179 50.5183 36.4509 50.4988 36.6257 50.4697C37.3054 50.3629 37.9948 50.2367 38.6745 50.1687C39.0354 50.1203 39.4011 50.1203 39.762 50.1687C40.597 50.2949 41.4321 50.46 42.2574 50.6154C42.3938 50.6334 42.522 50.6908 42.6264 50.7804C42.2865 50.7804 41.9273 50.7804 41.5874 50.8581C41.3667 50.8741 41.1501 50.9266 40.9466 51.0135C40.6359 51.1688 40.3446 51.3339 40.3251 51.8C40.3297 52.0271 40.2545 52.2487 40.1126 52.4261C39.9706 52.6035 39.771 52.7256 39.5484 52.7709C39.0913 52.9361 38.6467 53.1341 38.2181 53.3633C37.9948 53.4701 37.9948 53.5963 38.2181 53.7225C38.4414 53.8487 38.8492 54.0624 39.1891 54.2663C38.655 54.4702 38.655 54.4702 37.5481 53.9556C37.7035 54.2274 37.8588 54.4799 38.0239 54.7421C37.3151 54.9265 36.5771 55.1402 35.8392 55.3052C35.153 55.4224 34.5118 55.7245 33.9846 56.1791C33.4479 56.5562 32.8144 56.7718 32.1591 56.8006C31.8193 56.8685 31.5377 56.9268 31.5377 57.3832C31.5377 57.5482 31.3823 57.7424 31.2464 57.8784C31.0641 58.0477 30.8619 58.1944 30.6444 58.3153C30.4686 58.4416 30.2611 58.5165 30.0451 58.5315C29.8292 58.5465 29.6133 58.501 29.4217 58.4002C29.2302 58.2994 29.0705 58.1472 28.9606 57.9607C28.8507 57.7742 28.7949 57.5607 28.7995 57.3443C28.7706 57.1089 28.7706 56.8709 28.7995 56.6355C28.8758 56.3542 28.9867 56.0835 29.1296 55.8296C29.2065 55.7264 29.2944 55.632 29.3918 55.548C29.6167 55.3634 29.7884 55.1223 29.8895 54.8495C29.9905 54.5767 30.0172 54.2819 29.9668 53.9954C29.9164 53.7088 29.7908 53.4409 29.6027 53.2189C29.4147 52.9969 29.1709 52.8289 28.8966 52.7321C28.3687 52.4166 27.7794 52.2179 27.1682 52.1495C26.9602 52.0876 26.7634 51.9925 26.5856 51.8679C27.411 51.732 28.2072 51.6252 28.984 51.4795C29.3155 51.3821 29.6399 51.2621 29.955 51.1203C30.7846 50.7431 31.6984 50.5892 32.6058 50.6736H32.6155ZM40.7815 56.3248C40.7812 56.4203 40.7591 56.5145 40.7171 56.6003C40.675 56.6861 40.6141 56.7612 40.5388 56.82C40.2293 57.0089 39.9045 57.1713 39.5678 57.3055C39.4159 57.3841 39.2412 57.4067 39.0744 57.3694C38.9075 57.3321 38.759 57.2373 38.655 57.1016C38.5482 56.9753 38.3249 56.9365 38.1598 56.8588C38.1567 56.8136 38.1567 56.7681 38.1598 56.7229C38.3181 56.6467 38.4801 56.5786 38.6453 56.519C39.1794 56.3733 39.694 56.2374 40.2183 56.1112C40.3834 56.0529 40.6844 56.0529 40.7524 56.3248H40.7815ZM22.2065 51.8388C22.4492 51.7611 22.7017 51.7126 22.9638 51.6446C23.226 51.5766 23.5562 51.5184 23.6727 51.1397C23.7094 51.0624 23.7622 50.9939 23.8275 50.9387C23.8928 50.8834 23.9691 50.8427 24.0514 50.8193L24.4203 50.7513C24.8087 50.6736 25.2068 50.6056 25.6049 50.5474C25.9323 50.5339 26.2575 50.4884 26.5759 50.4114C27.1511 50.1908 27.7674 50.098 28.382 50.1396C28.5728 50.1492 28.764 50.1492 28.9549 50.1396H29.5083C29.5031 50.1847 29.5031 50.2303 29.5083 50.2755C28.8474 50.7897 28.0646 51.1242 27.2362 51.2465C26.0909 51.4361 24.9988 51.8663 24.0319 52.5088C23.7212 52.703 23.4105 52.8583 23.1775 52.3923C23.1775 52.3049 22.9638 52.2563 22.8279 52.2369C22.5265 52.2086 22.2278 52.1567 21.9346 52.0815C22.0105 51.989 22.0987 51.9074 22.1968 51.8388H22.2065ZM20.2645 52.9069C20.2645 52.9069 20.2062 52.9069 20.1577 52.8486C20.449 52.3631 20.7597 52.2175 21.2549 52.4505C21.4904 52.5697 21.7472 52.6414 22.0104 52.6614C22.2736 52.6814 22.5382 52.6493 22.7891 52.567C22.8174 52.5904 22.8434 52.6164 22.8667 52.6447C22.7891 52.7515 22.7405 52.9069 22.6434 52.9457C22.5463 52.9846 22.1482 53.0622 21.8958 53.1496C21.8395 53.1726 21.7892 53.2082 21.7488 53.2537C21.7084 53.2991 21.679 53.3532 21.6627 53.4118C21.6627 53.4701 21.7792 53.6157 21.8666 53.6448L22.1968 53.7322L24.799 54.4702C24.8406 54.4961 24.8767 54.5301 24.905 54.5701C24.9333 54.6101 24.9534 54.6554 24.9641 54.7032C24.9583 54.8344 24.9387 54.9645 24.9058 55.0916C24.7505 55.781 24.9058 56.0626 25.6535 56.0626C25.6601 56.1834 25.6223 56.3024 25.5471 56.3972C25.472 56.492 25.3648 56.5561 25.2457 56.5772C24.7796 56.6938 24.2747 56.8491 23.8669 56.9948C23.6435 57.0627 23.4202 57.1307 23.4882 57.4414C23.4821 57.5162 23.4473 57.5858 23.3911 57.6356C23.1966 57.7776 22.9619 57.8542 22.7211 57.8542C22.4802 57.8542 22.2456 57.7776 22.0511 57.6356C21.9693 57.5454 21.9133 57.4349 21.8889 57.3156C21.8644 57.1963 21.8725 57.0727 21.9121 56.9576C21.9518 56.8424 22.0217 56.7401 22.1145 56.6612C22.2073 56.5824 22.3195 56.5299 22.4395 56.5093C22.7114 56.4413 23.0027 56.4219 23.2843 56.3442C23.412 56.3167 23.5236 56.24 23.595 56.1306C23.595 56.0626 23.5076 55.8975 23.4202 55.8101C22.8819 55.3034 22.2066 54.9658 21.4782 54.8392C21.2646 54.8392 21.0316 54.7809 20.8083 54.7615C20.2839 54.7615 19.7499 54.6741 19.2158 54.6158C18.9925 54.6158 18.7109 54.6158 18.6915 54.276C18.6781 54.2049 18.6811 54.1318 18.7002 54.0621C18.7193 53.9923 18.754 53.9279 18.8017 53.8736C18.8495 53.8193 18.9089 53.7766 18.9756 53.7488C19.0424 53.7209 19.1145 53.7086 19.1867 53.7128C19.5415 53.7018 19.8952 53.6661 20.2451 53.606C20.4004 53.606 20.6238 53.4701 20.6432 53.3633C20.6529 53.072 20.4975 52.8875 20.2257 52.8875L20.2645 52.9069ZM24.8767 63.2188C25.0126 63.3742 25.2554 63.6169 25.2165 63.7431C25.1841 63.8767 25.1014 63.9927 24.9857 64.0668C24.8699 64.141 24.73 64.1676 24.5951 64.1412C24.1216 64.0797 23.6451 64.0441 23.1678 64.0344C23.5766 63.4385 24.16 62.984 24.8379 62.7333L24.498 63.0343C24.6209 63.0761 24.7358 63.1385 24.8379 63.2188H24.8767ZM26.1875 96.4558C25.8046 96.7045 25.4525 96.9978 25.1389 97.3297C24.958 97.6264 24.8391 97.9567 24.7893 98.3007C24.6519 98.9215 24.4801 99.5341 24.2747 100.136C24.129 100.476 23.7115 100.699 23.4493 101.01C23.2512 101.275 22.9621 101.457 22.6376 101.521C22.3131 101.586 21.9763 101.528 21.6918 101.359C21.5462 101.777 21.8278 102.049 22.0026 102.33C22.255 102.787 22.255 102.787 21.8181 103.088C21.4328 103.392 21.0633 103.716 20.7112 104.059C20.5796 104.179 20.4837 104.333 20.434 104.505C20.3843 104.676 20.3828 104.858 20.4296 105.03C20.4286 105.357 20.3862 105.684 20.3033 106.001C20.2576 106.162 20.2347 106.328 20.2354 106.496C20.2354 106.816 20.3713 107.127 20.4101 107.467C20.4781 108.001 20.517 108.554 20.5655 109.098C20.5655 109.302 20.6432 109.428 20.8859 109.448C20.9463 109.462 21.0027 109.49 21.0513 109.528C21.1 109.567 21.1396 109.616 21.1675 109.671C21.3132 109.982 21.4394 110.292 21.5656 110.642C21.4824 110.708 21.3866 110.757 21.2841 110.785C21.1816 110.813 21.0745 110.82 20.9692 110.805C20.864 110.79 20.7628 110.755 20.6717 110.7C20.5806 110.645 20.5015 110.573 20.4393 110.487C20.2412 110.115 19.9178 109.826 19.5265 109.671C18.8879 109.395 18.3729 108.894 18.0798 108.263C17.6502 107.643 17.4323 106.9 17.4583 106.146C17.52 105.888 17.4849 105.616 17.3597 105.381C17.2344 105.147 17.0278 104.967 16.7786 104.874C16.6718 104.874 16.6039 104.641 16.5844 104.505C16.5262 103.981 16.4971 103.437 16.4485 102.913C16.3417 101.777 16.2058 100.65 16.1378 99.5241C16.1378 98.6793 16.1378 97.8249 16.1378 96.9801C16.1378 96.5917 16.1378 96.213 16.1378 95.8441C16.0984 95.3517 15.9114 94.8826 15.6014 94.4981C15.2913 94.1135 14.8726 93.8314 14.3997 93.6885C14.1444 93.6416 13.9149 93.5034 13.7541 93.2997C13.5933 93.096 13.5121 92.8407 13.5258 92.5815C13.5342 92.3505 13.4753 92.1221 13.3564 91.9239C13.2375 91.7257 13.0636 91.5662 12.8558 91.4649C12.2911 91.1532 11.8646 90.6401 11.6615 90.0278C11.5848 89.8433 11.4688 89.6776 11.3217 89.5423C11.171 89.399 11.0604 89.2187 11.0008 89.0195C10.9412 88.8202 10.9347 88.6088 10.9818 88.4063C10.9959 88.1266 10.9764 87.8462 10.9236 87.5712C10.8838 87.3863 10.8675 87.1971 10.875 87.008C10.952 86.4625 11.1512 85.9414 11.4576 85.4836C11.7915 84.9923 12.0684 84.4646 12.283 83.9106C12.4043 83.6115 12.4215 83.2803 12.3316 82.9703C12.2418 82.6603 12.0502 82.3895 11.7878 82.2017C11.6987 82.1637 11.6029 82.1442 11.5062 82.1442C11.4094 82.1442 11.3136 82.1637 11.2246 82.2017C11.0492 82.3182 10.8408 82.3745 10.6306 82.3623C10.4205 82.35 10.22 82.2698 10.0594 82.1337C9.36219 81.6942 8.79026 81.0821 8.39899 80.3568C8.33101 80.2545 8.23246 80.1764 8.11741 80.1334C7.94685 80.066 7.7665 80.0267 7.58336 80.0169C7.09299 79.9815 6.63616 79.7549 6.31137 79.3858C6.11757 79.1811 5.87925 79.0239 5.61488 78.9263C5.35051 78.8286 5.06721 78.7931 4.78692 78.8226C4.7105 78.8423 4.63031 78.8423 4.55388 78.8226C3.42089 78.5299 2.38985 77.9321 1.57293 77.0942C1.45207 76.932 1.36707 76.746 1.32355 76.5485C1.28002 76.351 1.27898 76.1464 1.32048 75.9485C1.61252 73.6769 2.12637 71.4394 2.85465 69.2681C3.95289 65.925 5.53633 62.7614 7.55423 59.8786C8.3019 58.8008 9.16608 57.7813 9.98171 56.7423C10.0982 56.5869 10.2245 56.5093 10.3992 56.6355C10.5203 56.709 10.655 56.7572 10.7951 56.7772C10.9353 56.7972 11.0781 56.7887 11.2149 56.752C11.8849 56.6743 12.5645 56.7035 13.2151 56.5675C13.9998 56.4004 14.767 56.1598 15.5066 55.849C15.7809 55.6935 16.0156 55.4768 16.1925 55.2157C16.3693 54.9547 16.4835 54.6564 16.5262 54.344C16.5715 54.1692 16.6298 53.9944 16.701 53.8196C16.8952 53.1788 16.8952 53.1788 17.5457 53.3244C18.0118 53.4409 18.5167 53.5477 18.9051 53.6351C18.5264 53.7711 18.1283 53.8973 17.7496 54.0527C17.3709 54.208 17.4875 54.2954 17.6525 54.4799C17.8176 54.6644 18.1672 55.1305 18.439 55.4509C18.5264 55.5286 18.7206 55.5965 18.7886 55.5577C19.3369 55.3396 19.9304 55.2596 20.517 55.3246C20.366 55.5831 20.1869 55.8241 19.9829 56.0432C19.773 56.2049 19.526 56.3117 19.2644 56.3539C18.5944 56.4898 17.905 56.5772 17.2253 56.684C17.186 56.912 17.0666 57.1185 16.8886 57.2662C16.7105 57.414 16.4856 57.4933 16.2543 57.49C15.3745 57.6362 14.5498 58.015 13.8657 58.5872C13.6217 58.7196 13.4357 58.9382 13.3442 59.2003C13.2526 59.4624 13.262 59.7493 13.3705 60.0048C13.4384 60.2184 13.5064 60.5 13.856 60.3155C13.9045 60.3155 14.021 60.3155 14.0987 60.3835C14.4288 60.5583 14.7396 60.7428 15.0697 60.9078C15.3998 61.0729 15.6134 61.2477 15.9727 61.1215C16.0504 61.1215 16.1572 61.1215 16.1572 61.1215C16.0698 61.6652 15.9824 62.1507 15.8853 62.6945C16.0754 62.7047 16.2648 62.6653 16.4351 62.5802C16.6053 62.4951 16.7505 62.3672 16.8563 62.209C17.4875 61.238 18.1574 60.4029 18.7983 59.5096C18.9018 59.384 18.9959 59.2509 19.0799 59.1115C19.258 58.7682 19.5462 58.4945 19.8983 58.3343C20.2503 58.1741 20.646 58.1366 21.0219 58.2279C21.4685 58.2959 21.7695 58.393 21.7307 58.927C21.7307 59.0047 21.9443 59.1406 22.0608 59.1601C22.6546 59.2041 23.2476 59.0652 23.7601 58.762C23.7917 58.8434 23.8145 58.9281 23.828 59.0144C23.8426 59.1305 23.8426 59.2479 23.828 59.364C23.7113 59.8033 23.7583 60.27 23.9601 60.6773C24.162 61.0846 24.505 61.4046 24.9252 61.5778L25.1 61.6652C24.4547 62.2803 23.6112 62.6452 22.7211 62.6945C22.1043 62.6912 21.4977 62.852 20.9636 63.1605C20.5174 63.3686 20.0565 63.5438 19.5848 63.6849C19.4183 63.7848 19.2677 63.9092 19.1382 64.0539L19.1964 64.1704L20.9539 64.015C20.8859 64.4423 20.9539 64.6947 21.4103 64.7335C21.5753 64.7335 21.721 64.986 21.9346 65.1608C21.1869 65.3064 20.7985 66.1318 19.8373 65.9376L20.5946 65.2385C20.2451 64.8404 20.148 64.8015 19.6819 65.1025C19.2158 65.4035 18.7983 65.7531 18.3516 66.0735C18.2351 66.1609 18.1283 66.2968 18.0021 66.3163C17.2253 66.4619 16.8466 67.1028 16.3417 67.6077L16.2349 67.7145C16.1365 67.8459 16.0111 67.9547 15.867 68.0335C15.7229 68.1122 15.5636 68.1591 15.3998 68.1709C15.2464 68.1702 15.098 68.2254 14.9823 68.3262C14.8455 68.4466 14.7559 68.6119 14.7298 68.7923C14.7592 69.1193 14.6874 69.4473 14.5241 69.7321C14.3609 70.017 14.1141 70.2448 13.8171 70.3847C13.2784 70.663 12.765 70.9879 12.283 71.3557C12.0782 71.566 11.9403 71.8323 11.8868 72.1209C11.8332 72.4095 11.8663 72.7075 11.9819 72.9772C12.073 73.1649 12.1203 73.3707 12.1203 73.5793C12.1203 73.7878 12.073 73.9936 11.9819 74.1813C11.9819 74.2784 11.7198 74.3561 11.5741 74.3561C11.4285 74.3561 11.3314 74.2201 11.3023 74.1133C11.1857 73.6278 11.0983 73.1423 10.9818 72.6374C10.915 72.4733 10.8304 72.317 10.7294 72.1713H10.6323C10.6323 72.3558 10.6323 72.5403 10.6323 72.7248C10.6072 72.7587 10.5737 72.7854 10.5352 72.8025C10.3992 72.6568 10.2827 72.5112 10.1468 72.3849C9.96197 72.2115 9.75653 72.0615 9.53506 71.9383C9.42141 71.8837 9.29099 71.8755 9.17139 71.9154C9.05178 71.9552 8.95238 72.0401 8.89421 72.1519C8.65146 72.4626 8.37958 72.7539 8.13684 73.0355C7.93732 72.7899 7.72331 72.5565 7.49598 72.3364C7.4483 72.296 7.39198 72.2672 7.33137 72.252C7.27076 72.2369 7.20749 72.2358 7.14642 72.249C6.67388 72.3227 6.24515 72.5682 5.94239 72.9384C5.62766 73.3211 5.27646 73.6723 4.89373 73.9871C4.7234 74.1087 4.6036 74.2885 4.55707 74.4926C4.51053 74.6966 4.54049 74.9106 4.64126 75.094C4.68579 75.2594 4.68579 75.4336 4.64126 75.5989C4.55406 76.0532 4.64166 76.5237 4.88652 76.9162C5.13137 77.3087 5.51543 77.5943 5.96181 77.7157C6.19818 77.7965 6.45552 77.7912 6.68831 77.7005C6.9211 77.6099 7.11432 77.4399 7.23381 77.2205C7.33091 77.0069 7.39888 76.7835 7.49598 76.5699C7.51495 76.5059 7.54744 76.4467 7.59126 76.3964C7.63508 76.3461 7.68921 76.3057 7.74997 76.2781C7.81073 76.2505 7.87671 76.2362 7.94345 76.2363C8.0102 76.2364 8.07615 76.2508 8.13684 76.2786C8.21282 76.3556 8.26989 76.4491 8.30359 76.5519C8.33729 76.6547 8.34668 76.7639 8.33103 76.8709C8.24723 77.2377 8.1369 77.5979 8.0009 77.9487C7.87467 78.3565 8.0009 78.5313 8.37958 78.6284C8.75827 78.7255 9.00102 78.7255 9.35057 78.7643C9.43556 78.7589 9.52062 78.7736 9.59892 78.8071C9.67722 78.8405 9.74654 78.8919 9.80134 78.9571C9.85613 79.0223 9.89485 79.0994 9.91437 79.1823C9.93389 79.2652 9.93369 79.3515 9.91375 79.4343C9.86996 79.8929 9.86996 80.3546 9.91375 80.8131C9.98741 81.0795 10.1317 81.3211 10.3313 81.5122C10.404 81.5579 10.4881 81.5822 10.574 81.5822C10.6599 81.5822 10.744 81.5579 10.8168 81.5122C10.9588 81.4186 11.1218 81.3616 11.2912 81.3463C11.4607 81.3311 11.6313 81.358 11.7878 81.4249C11.9043 81.4734 12.0402 81.5025 12.1567 81.5414C12.7199 81.6773 12.8655 81.5414 13.2539 81.1627C13.5013 80.923 13.7868 80.7261 14.0987 80.5801C14.1467 80.5657 14.1978 80.5654 14.246 80.5791C14.2942 80.5929 14.3374 80.6202 14.3706 80.6578C14.3946 80.6973 14.4073 80.7426 14.4073 80.7889C14.4073 80.8351 14.3946 80.8804 14.3706 80.9199C14.0599 81.1918 14.2249 81.3278 14.4968 81.4443L15.1571 81.7259C14.7299 81.0365 15.293 80.8034 15.5455 80.3859C15.6426 80.4636 15.7494 80.5121 15.8368 80.5898C16.0158 80.7898 16.2387 80.9456 16.4881 81.045C16.7374 81.1444 17.0063 81.1846 17.2739 81.1627H17.3515C18.0767 81.1709 18.7713 81.4557 19.2935 81.9589C20.0251 82.5915 20.9028 83.032 21.8472 83.2406C22.0503 83.2757 22.2429 83.3558 22.411 83.4751C22.579 83.5944 22.7182 83.7498 22.8182 83.93C22.993 84.2213 23.2163 84.4835 23.3911 84.7651C23.6727 85.2117 23.5853 85.5224 23.1192 85.7361L22.6726 85.9594C22.7891 86.1827 22.9347 86.2507 23.1483 86.1245C23.3068 86.0342 23.4766 85.9656 23.6532 85.9205C23.7795 85.9205 23.9154 86.0274 24.0222 86.1147C24.129 86.2021 23.964 86.2701 23.9348 86.3575C23.9057 86.4449 23.8766 86.5711 23.9348 86.5808C24.0155 86.6327 24.1111 86.6566 24.2067 86.6488C24.2856 86.6397 24.3582 86.6016 24.4106 86.542C24.488 86.455 24.583 86.3853 24.6893 86.3376C24.7956 86.29 24.9107 86.2653 25.0272 86.2653C25.1437 86.2653 25.2588 86.29 25.3651 86.3376C25.4714 86.3853 25.5664 86.455 25.6438 86.542C25.6923 86.5905 25.7894 86.6197 25.7894 86.6585C25.8477 87.3091 26.2846 87.0469 26.5662 86.9401C26.7024 86.8879 26.8482 86.8652 26.9938 86.8735C27.1395 86.8819 27.2816 86.9211 27.411 86.9886C28.081 87.2799 28.7898 87.513 29.4986 87.7654C29.6023 87.7927 29.6943 87.8529 29.7608 87.9369C29.8273 88.021 29.8648 88.1243 29.8676 88.2315C29.9422 88.7799 29.8937 89.338 29.7258 89.8654C29.5578 90.3928 29.2746 90.8761 28.8966 91.2804C28.8417 91.3538 28.7679 91.4109 28.683 91.4455C28.3723 91.5814 28.3528 91.8339 28.3431 92.1155C28.3465 92.8386 28.3109 93.5615 28.2363 94.2808C28.1442 94.724 27.9906 95.1521 27.78 95.5528C27.6246 95.8829 27.4692 96.2227 26.9449 96.1354C26.7797 96.1346 26.619 96.1893 26.4885 96.2907C26.3623 96.3198 26.2652 96.3975 26.1875 96.4558ZM65.2796 93.5428C64.9883 94.2613 64.8135 95.0381 64.5708 95.7761C64.4913 95.9963 64.3836 96.2051 64.2503 96.3975C63.8911 97.0869 63.8911 97.0869 63.1434 96.951C62.8568 96.8536 62.6204 96.6468 62.4858 96.3758C62.3512 96.1047 62.3293 95.7914 62.4249 95.5042C62.6221 95.2621 62.7855 94.9942 62.9104 94.708C62.9826 94.3884 62.9826 94.0567 62.9104 93.737C62.8977 93.5153 62.9545 93.2951 63.0729 93.1071C63.1912 92.9192 63.3652 92.7728 63.5706 92.6883C63.6798 92.6753 63.7819 92.6277 63.8619 92.5524C64.2309 92.1834 64.6096 91.795 64.9592 91.4066C65.0408 91.2848 65.1091 91.1546 65.1631 91.0182C65.4974 91.8208 65.5319 92.7169 65.2602 93.5428H65.2796ZM72.3581 74.3366C72.251 74.2002 72.1112 74.0931 71.9516 74.0252C71.792 73.9573 71.6179 73.9308 71.4454 73.9482C70.2444 74.0189 69.0422 73.8301 67.9207 73.3948C67.115 73.1894 66.3455 72.862 65.6389 72.4238C65.0613 72.1189 64.4383 71.909 63.794 71.8023C63.8304 71.9024 63.8532 72.0069 63.8619 72.1131C63.7163 73.0064 64.3863 73.4239 64.9009 73.9385C65.1242 74.1521 65.3379 74.3755 65.5806 74.6376L67.1245 74.2201C67.3052 74.1619 67.5004 74.1678 67.6773 74.2368C67.8542 74.3058 68.0019 74.4336 68.0955 74.5988C68.3631 74.9187 68.6518 75.2203 68.9596 75.5018C69.2315 75.8028 69.1636 75.8805 68.8528 76.1135C68.007 76.5867 67.243 77.1933 66.5904 77.9099C66.5163 78.0163 66.4203 78.1056 66.3088 78.172C65.8136 78.4925 65.3378 78.7935 64.8232 79.143C64.6527 79.2398 64.4633 79.2986 64.268 79.3154C64.0726 79.3321 63.876 79.3064 63.6915 79.24C63.507 79.1736 63.3391 79.068 63.1992 78.9306C63.0594 78.7932 62.9509 78.6272 62.8812 78.4439C62.6634 77.7277 62.296 77.0657 61.8034 76.5019C61.5608 76.1446 61.3681 75.7559 61.2306 75.3465C61.0282 74.9207 60.6853 74.5778 60.2596 74.3755C60.0638 74.3035 59.8874 74.1871 59.7442 74.0355C59.601 73.8839 59.4949 73.7011 59.4342 73.5016C59.24 72.9481 58.9584 72.4044 58.7254 71.8509C58.1719 72.0839 58.1719 72.0839 58.3273 72.6277C58.5989 73.5663 59.0079 74.4596 59.541 75.2785C60.4723 76.5436 61.2543 77.912 61.8714 79.3566C62.0074 79.745 62.1044 80.1626 62.2598 80.5413C62.4928 81.1141 62.755 81.1821 63.2891 80.8714C63.3439 80.8319 63.407 80.8053 63.4735 80.7937H65.5709C65.4904 81.3566 65.377 81.9143 65.231 82.4638C65.1082 82.9287 64.8825 83.36 64.5708 83.7261C64.0864 84.1385 63.5702 84.5119 63.0269 84.8428C62.8893 84.9297 62.7758 85.05 62.6968 85.1923C62.0947 86.2992 61.5219 87.4062 60.9296 88.5034C60.7742 88.785 60.7256 89.0083 60.9296 89.2413C61.7549 90.1249 61.5121 91.1833 61.5219 92.2611C61.5219 92.3776 61.3374 92.5233 61.2014 92.601C60.5308 92.8978 59.9316 93.3349 59.4439 93.8827C59.2522 94.1202 59.1191 94.3997 59.0555 94.6983C58.9412 95.5899 58.6542 96.4507 58.2108 97.2326C57.5408 98.3686 56.9485 99.563 56.3368 100.728C56.2877 100.857 56.2034 100.968 56.0934 101.051C55.9834 101.133 55.8524 101.183 55.7153 101.194L53.919 101.301C53.6568 101.301 53.4044 101.379 53.1422 101.398C53.0224 101.407 52.9029 101.377 52.8024 101.311C52.5888 101.146 52.4043 100.942 52.2392 100.796C52.2493 100.196 52.0948 99.6053 51.7925 99.0872C51.6774 98.8992 51.5475 98.7206 51.4041 98.5531C51.0071 97.9832 50.7937 97.3057 50.7924 96.6111C50.7596 96.2282 50.6436 95.8571 50.4526 95.5236C50.0058 94.8445 49.7263 94.0692 49.6369 93.2612C49.6394 92.807 49.7216 92.3568 49.8797 91.931C49.9373 91.7479 50.0154 91.572 50.1127 91.4066C50.2952 91.0421 50.33 90.6213 50.2098 90.2317C49.9226 88.8879 49.3533 87.6203 48.5397 86.5129C48.4545 86.3652 48.4096 86.1978 48.4096 86.0274C48.4096 85.8569 48.4545 85.6895 48.5397 85.5419C48.6656 85.2855 48.805 85.0359 48.9572 84.7942C49.1029 84.5806 49.0932 84.4058 48.831 84.3087C48.7041 84.2718 48.5898 84.2006 48.5007 84.103C48.4116 84.0053 48.3512 83.885 48.3261 83.7552C48.3261 83.6776 48.1028 83.561 47.996 83.5708C47.7361 83.5991 47.4731 83.5675 47.2273 83.4783C46.9815 83.3891 46.7595 83.2446 46.5783 83.0561C46.3938 82.8716 45.986 82.8716 45.6656 82.8522C45.4337 82.8647 45.2048 82.9104 44.9859 82.9882L41.7913 83.7552C41.5344 83.8135 41.2664 83.8019 41.0154 83.7217C40.7644 83.6414 40.5395 83.4954 40.364 83.2989C40.2701 83.1948 40.166 83.1005 40.0533 83.0173C39.8232 82.8802 39.6314 82.6874 39.4956 82.4566C39.3599 82.2257 39.2845 81.9644 39.2765 81.6967C39.2571 81.5801 39.2099 81.4697 39.1389 81.3751C39.0679 81.2805 38.9752 81.2043 38.8687 81.153C37.8977 80.8423 37.7617 79.9684 37.4996 79.211C37.4829 79.0927 37.4906 78.9721 37.5223 78.8569C37.5541 78.7416 37.6091 78.6341 37.6841 78.541C37.8064 78.4315 37.8903 78.2856 37.9235 78.1248C37.9567 77.964 37.9374 77.7968 37.8685 77.6477C37.6916 77.2511 37.6176 76.8163 37.6532 76.3836C37.6889 75.9508 37.8331 75.534 38.0725 75.1717C38.3164 74.6352 38.6943 74.1704 39.1697 73.822C39.3542 73.6958 39.4027 73.3754 39.5775 73.2297C40.1121 72.734 40.4902 72.0927 40.665 71.3848C40.8154 71.0961 41.0276 70.8442 41.2864 70.6469C41.6748 70.2779 42.0923 69.938 42.4807 69.5691C42.6944 69.3749 42.84 69.3555 42.9954 69.6273C43.0315 69.6801 43.0791 69.7241 43.1346 69.756C43.1901 69.788 43.252 69.807 43.3158 69.8118L45.083 69.5788C45.2547 69.5293 45.43 69.4935 45.6073 69.472C46.46 69.4909 47.3051 69.3079 48.0736 68.9379C48.252 68.8709 48.4487 68.8709 48.6271 68.9379C48.6854 68.9379 48.6854 69.2001 48.6757 69.3457C48.6798 69.5468 48.7301 69.7442 48.8227 69.9226C48.9153 70.1011 49.0477 70.2559 49.2097 70.375L50.0739 71.21C50.1322 71.2586 50.2001 71.3363 50.2681 71.346C50.8507 71.4431 51.443 71.5499 52.045 71.5984C52.3363 71.5984 52.5305 71.4916 52.6276 71.1324C52.7247 70.7731 53.0257 70.6566 53.2296 70.4235C53.2256 70.4655 53.2256 70.5078 53.2296 70.5498C53.3516 70.6789 53.4885 70.793 53.6374 70.8896C53.9447 71.0641 54.2704 71.2042 54.6084 71.3072C54.8626 71.3458 55.1213 71.3458 55.3755 71.3072C55.5208 71.2926 55.6671 71.2926 55.8124 71.3072C56.4339 71.3945 57.0456 71.4722 57.667 71.5984C57.7665 71.6212 57.8702 71.6171 57.9675 71.5863C58.0648 71.5556 58.1522 71.4994 58.2205 71.4237C58.4909 71.2844 58.7034 71.0541 58.8206 70.7734C58.9379 70.4928 58.9523 70.1797 58.8613 69.8895C58.8013 69.6272 58.7592 69.3612 58.7351 69.0933C58.5413 69.02 58.3336 68.9906 58.127 69.0074C57.9205 69.0242 57.7202 69.0867 57.5408 69.1904C57.3264 69.3315 57.0705 69.3958 56.8148 69.3729C56.5591 69.35 56.3188 69.2412 56.1329 69.0642C55.516 68.6849 55.0626 68.0895 54.8609 67.3941C55.4629 67.6951 55.7056 67.3261 55.9872 66.7921C55.2396 66.9668 54.5696 67.1028 53.9093 67.2873C53.8432 67.3024 53.7818 67.3335 53.7304 67.3777C53.6789 67.422 53.6391 67.478 53.6142 67.5412C53.5894 67.6043 53.5802 67.6725 53.5877 67.7399C53.5951 67.8073 53.6188 67.8719 53.6568 67.9281C53.7059 68.0028 53.7298 68.0913 53.7248 68.1806C53.6987 68.3315 53.653 68.4784 53.5889 68.6175C53.4044 68.5398 53.1325 68.5107 53.0548 68.3553C52.9771 68.2 52.8703 67.8601 52.5596 67.763C52.5366 67.7522 52.5167 67.736 52.5014 67.7156C52.4862 67.6953 52.4762 67.6716 52.4722 67.6465C52.5305 67.0154 51.977 66.6755 51.7149 66.2483C51.658 66.19 51.59 66.1437 51.515 66.112C51.44 66.0803 51.3594 66.0639 51.2779 66.0638C51.0744 66.0659 50.8734 66.0184 50.6924 65.9253C50.5113 65.8323 50.3557 65.6965 50.239 65.5298C50.1458 65.3866 50.0273 65.2615 49.8894 65.1608C49.6855 65.0054 49.433 64.8986 49.2388 65.1608C49.1855 65.2064 49.1427 65.2629 49.1134 65.3266C49.0841 65.3903 49.0689 65.4596 49.0689 65.5298C49.0689 65.5999 49.0841 65.6692 49.1134 65.7329C49.1427 65.7966 49.1855 65.8531 49.2388 65.8987C49.5981 66.3243 50.0543 66.6573 50.5691 66.8697C50.7289 66.9407 50.8726 67.0437 50.9911 67.1722C51.1097 67.3008 51.2007 67.4523 51.2585 67.6174C51.1306 67.7204 50.9804 67.7923 50.8198 67.8272C50.6593 67.8622 50.4929 67.8593 50.3336 67.8188C50.1744 67.7783 50.0268 67.7013 49.9025 67.5938C49.7782 67.4864 49.6807 67.3515 49.6175 67.1999C49.4917 67.0152 49.3486 66.8429 49.1903 66.6852C48.945 66.3612 48.6756 66.056 48.3844 65.7725C47.9863 65.4132 47.2095 65.3841 47.1221 66.0735C47.1093 66.1464 47.0898 66.2179 47.0638 66.2871L46.8016 66.2094C46.5775 66.1233 46.3294 66.1233 46.1053 66.2094C45.8811 66.2954 45.6968 66.4615 45.5879 66.6755C45.4908 66.8212 45.3452 66.9474 45.2383 67.0833C45.1279 67.1882 45.0388 67.3135 44.9762 67.4523C44.9102 67.7329 44.7655 67.9889 44.5591 68.1901C44.3527 68.3914 44.0932 68.5295 43.811 68.5884C43.0732 68.7136 42.3261 68.7754 41.5777 68.7729C41.5001 68.7517 41.4291 68.7113 41.3714 68.6552C41.3136 68.5992 41.271 68.5294 41.2476 68.4524C41.1847 67.9365 41.1847 67.4148 41.2476 66.8988C41.3032 66.6395 41.4509 66.409 41.6633 66.2501C41.8757 66.0912 42.1385 66.0147 42.4031 66.0347H43.9761C44.1703 66.0347 44.2965 65.9764 44.2771 65.7337C44.2674 65.6433 44.2674 65.5521 44.2771 65.4618C44.3839 64.8404 44.3548 64.7724 43.7916 64.4422C43.6265 64.3451 43.442 64.2772 43.277 64.1801C43.1119 64.083 43.0925 64.0344 43.1022 63.9665C43.1123 63.9181 43.1345 63.8732 43.1668 63.8358C43.1991 63.7985 43.2403 63.7699 43.2867 63.7528C43.4823 63.693 43.6844 63.6571 43.8887 63.646C44.2968 63.6554 44.6986 63.5444 45.0439 63.3268C45.3893 63.1092 45.6629 62.7947 45.8307 62.4226C45.9104 62.2077 46.0494 62.0197 46.2316 61.8806C46.4137 61.7414 46.6316 61.6566 46.8599 61.6361C47.6076 61.5196 47.7435 61.3254 47.8309 60.5583C47.8787 60.3607 47.947 60.1687 48.0348 59.9854H48.1902C48.3194 60.2446 48.4266 60.5142 48.5106 60.7913C48.5314 60.9343 48.5972 61.0669 48.6985 61.1699C48.7997 61.2729 48.9312 61.341 49.0738 61.3642C49.3581 61.3886 49.6439 61.3886 49.9282 61.3642C50.4234 61.2962 50.8992 61.1991 51.3944 61.1312C51.5692 61.1312 51.676 61.1312 51.7343 60.869C51.7925 60.6068 52.0256 60.5195 52.1906 60.3544C52.3557 60.1893 52.579 60.1116 52.5888 59.8009C52.6398 59.6305 52.7433 59.4806 52.8845 59.3725C53.0257 59.2645 53.1975 59.2037 53.3753 59.1989C53.5332 59.2341 53.6719 59.3278 53.7636 59.4611C53.8588 59.6433 53.9337 59.8354 53.987 60.034C54.2418 59.804 54.4289 59.5088 54.5282 59.1802C54.6274 58.8517 54.635 58.5022 54.5502 58.1697C54.3533 58.2283 54.152 58.2706 53.9481 58.2959C53.6646 58.3349 53.3772 58.3349 53.0937 58.2959C52.278 58.1211 52.1227 57.7424 52.5888 57.0627C52.7441 56.82 52.9189 56.3345 52.8412 56.2859C52.5305 56.0529 52.2489 56.3442 52.0353 56.5384C51.5057 56.9661 51.1195 57.5455 50.9284 58.1988C50.7787 58.7746 50.543 59.3246 50.2292 59.83C50.103 60.0437 49.6952 60.1311 49.4039 60.1699C49.2971 60.1699 49.1223 59.9369 49.0058 59.7815C48.8941 59.6135 48.7935 59.4383 48.7048 59.2572C48.7006 59.2991 48.7006 59.3414 48.7048 59.3834L46.9764 59.4708C46.9473 59.3918 46.9245 59.3106 46.9085 59.228C46.656 57.9852 46.5395 58.1502 47.7435 57.6744C48.111 57.4715 48.4397 57.2053 48.7145 56.8879L49.5301 56.1888C49.5857 56.1478 49.6348 56.0988 49.6758 56.0432C50.4914 54.9557 51.7051 54.7809 52.9286 54.5867C54.0254 54.5459 55.1181 54.7413 56.1329 55.1596L57.8806 55.6742C57.0844 56.3151 56.3659 55.6742 55.6862 55.7907C55.6862 55.7907 55.6377 55.8684 55.6862 55.8781C56.0738 56.3031 56.489 56.702 56.9291 57.0724C57.0108 57.1129 57.1006 57.1342 57.1918 57.1349C57.283 57.1355 57.3731 57.1155 57.4554 57.0762C57.5377 57.0369 57.61 56.9795 57.6668 56.9082C57.7237 56.8369 57.7636 56.7536 57.7835 56.6646C57.8515 56.4219 57.9583 56.3054 58.2205 56.3054C58.3842 56.3019 58.5434 56.2503 58.678 56.1571C58.8127 56.0638 58.917 55.9331 58.9779 55.781C59.1138 55.5188 59.2886 55.4023 59.5702 55.5091C59.5702 55.8101 59.6673 55.9461 59.9683 55.849C60.0821 55.8131 60.19 55.7608 60.2887 55.6936C60.6373 55.4795 61.0472 55.3872 61.4539 55.4315C62.0252 55.4014 62.5885 55.2835 63.124 55.0819C63.6386 54.946 63.9105 54.9945 64.1727 55.2858C66.5827 57.7829 68.629 60.6071 70.2511 63.6752C72.1955 67.3115 73.5088 71.2514 74.135 75.327C74.1399 75.369 74.1399 75.4113 74.135 75.4533C73.232 75.5115 72.795 74.8415 72.3387 74.3366H72.3581Z" fill="#68E1FD"/>
<path d="M74.1447 75.3173C73.2223 75.5115 72.8145 74.8416 72.329 74.3464C72.2258 74.2055 72.0866 74.0951 71.926 74.0268C71.7653 73.9584 71.5893 73.9347 71.4163 73.9579C69.3702 73.9609 67.36 73.4215 65.5903 72.3947C65.0177 72.0802 64.3925 71.8729 63.7454 71.7829C63.7821 71.8762 63.8051 71.9743 63.8134 72.0742C63.6678 72.9772 64.328 73.3948 64.8524 73.9094C65.0757 74.123 65.2796 74.3463 65.5321 74.6085L67.0759 74.191C67.2556 74.132 67.45 74.1364 67.6267 74.2036C67.8035 74.2707 67.9518 74.3965 68.0469 74.56C68.3112 74.8828 68.5967 75.1877 68.9014 75.4727C69.183 75.7737 69.115 75.8611 68.7946 76.0844C67.9534 76.5603 67.1931 77.1666 66.5419 77.8808C66.4655 77.9825 66.3698 78.0683 66.2603 78.1332C65.7651 78.4633 65.2893 78.7741 64.7747 79.1042C64.6052 79.2029 64.4162 79.2635 64.2209 79.2818C64.0256 79.3 63.8287 79.2755 63.6438 79.2099C63.459 79.1442 63.2906 79.0391 63.1506 78.9018C63.0105 78.7645 62.902 78.5983 62.8327 78.4148C62.6149 77.6985 62.2475 77.0366 61.7549 76.4728C61.5124 76.1189 61.3197 75.7334 61.182 75.327C60.9973 74.8777 60.6508 74.5139 60.211 74.3075C60.0174 74.2346 59.8427 74.1191 59.6999 73.9695C59.557 73.8199 59.4496 73.6401 59.3857 73.4433C59.1915 72.8704 58.9196 72.3364 58.6769 71.7829C58.1234 72.016 58.1234 72.016 58.269 72.5597C58.5504 73.4964 58.9623 74.3887 59.4925 75.2105C60.4238 76.4756 61.2058 77.8441 61.8229 79.2887C61.9588 79.6771 62.0559 80.0946 62.2113 80.4733C62.454 81.0462 62.7065 81.1141 63.2405 80.8034C63.2904 80.7618 63.3509 80.7349 63.4153 80.7257H65.5223C65.4058 81.2986 65.3476 81.8715 65.1825 82.4056C65.0598 82.8676 64.8341 83.2958 64.5222 83.6581C64.0355 84.0674 63.5195 84.4406 62.9784 84.7748C62.8417 84.866 62.7259 84.9851 62.6385 85.1243C62.0462 86.2215 61.483 87.3382 60.881 88.4354C60.7256 88.717 60.6771 88.9403 60.881 89.1734C61.6966 90.057 61.4636 91.1153 61.4733 92.1931C61.4733 92.2999 61.2888 92.4553 61.1529 92.533C60.4852 92.8349 59.8869 93.2712 59.3954 93.8147C59.2036 94.0522 59.0706 94.3317 59.007 94.6303C58.8997 95.5249 58.6088 96.3877 58.1525 97.1646C57.4923 98.3104 56.8999 99.495 56.2979 100.66C56.2462 100.789 56.1599 100.9 56.0484 100.983C55.937 101.065 55.8049 101.115 55.6668 101.126C55.0648 101.126 54.4725 101.184 53.8705 101.233C53.6083 101.233 53.3558 101.311 53.0937 101.33C52.9767 101.342 52.8594 101.311 52.7635 101.243C52.5402 101.078 52.3557 100.874 52.1907 100.728C52.1935 100.131 52.0431 99.5421 51.7537 99.0192C51.6275 98.8347 51.5013 98.6502 51.3556 98.4754C50.9665 97.9235 50.7533 97.2669 50.7439 96.5917C50.7141 96.2052 50.5979 95.8302 50.404 95.4945C49.9568 94.8148 49.6742 94.0401 49.5787 93.2321C49.5869 92.7798 49.6757 92.3327 49.8409 91.9116C49.8903 91.7195 49.9689 91.5361 50.0739 91.3678C50.2455 91.003 50.2732 90.5869 50.1516 90.2026C49.8672 88.8595 49.3013 87.592 48.4912 86.4837C48.406 86.3361 48.3611 86.1687 48.3611 85.9982C48.3611 85.8278 48.406 85.6603 48.4912 85.5127C48.6183 85.2551 48.761 85.0054 48.9184 84.7651C49.0641 84.5417 49.0544 84.3767 48.7825 84.2796C48.6558 84.2459 48.5419 84.1754 48.4554 84.0768C48.369 83.9782 48.3138 83.8561 48.297 83.7261C48.2588 83.6708 48.2082 83.6253 48.1491 83.5932C48.0901 83.5612 48.0243 83.5435 47.9571 83.5416C47.6988 83.5685 47.4377 83.5361 47.1937 83.4469C46.9498 83.3577 46.7293 83.2141 46.5492 83.027C46.2722 82.8692 45.9543 82.7982 45.6365 82.8231C45.4013 82.8346 45.169 82.8804 44.9471 82.959L41.7525 83.7261C41.4963 83.7815 41.2301 83.7695 40.9799 83.6912C40.7297 83.6129 40.5041 83.4711 40.3252 83.2794C40.2312 83.1725 40.1272 83.075 40.0144 82.9882C39.7842 82.8489 39.5925 82.6542 39.4568 82.4218C39.3212 82.1895 39.2458 81.9268 39.2377 81.6579C39.2161 81.5432 39.1679 81.4352 39.0971 81.3425C39.0263 81.2498 38.9348 81.1749 38.8298 81.1239C37.8588 80.8131 37.7326 79.9392 37.4704 79.1819C37.4495 79.0657 37.4542 78.9464 37.4844 78.8323C37.5146 78.7182 37.5695 78.6121 37.6452 78.5216C37.7672 78.4118 37.8503 78.2653 37.8818 78.1041C37.9133 77.943 37.8916 77.776 37.82 77.6283C37.6497 77.2297 37.5801 76.7954 37.6174 76.3636C37.6546 75.9318 37.7976 75.5158 38.0336 75.1523C38.278 74.616 38.6557 74.1513 39.1308 73.8026C39.3153 73.6764 39.3639 73.3559 39.5387 73.2103C40.0733 72.7145 40.4513 72.0733 40.6262 71.3654C40.7765 71.0767 40.9887 70.8248 41.2476 70.6275C41.636 70.2585 42.0535 69.9186 42.4419 69.5497C42.6555 69.3555 42.8012 69.3263 42.9663 69.6079C42.9986 69.6621 43.0439 69.7074 43.0982 69.7396C43.1525 69.7718 43.2139 69.79 43.277 69.7924C43.8596 69.7244 44.4519 69.637 45.0442 69.5497C45.2193 69.5032 45.3979 69.4708 45.5782 69.4526C46.4272 69.4657 47.2679 69.2829 48.0348 68.9185C48.2098 68.8512 48.4036 68.8512 48.5786 68.9185C48.6465 68.9185 48.6465 69.1904 48.6368 69.3263C48.6387 69.5278 48.688 69.726 48.7808 69.9048C48.8736 70.0836 49.0072 70.2381 49.1709 70.3556C49.4525 70.6372 49.7535 70.909 50.0448 71.1809C50.0933 71.2392 50.1516 71.3169 50.2195 71.3266C50.8119 71.4237 51.4042 71.5305 51.9965 71.579C52.2975 71.579 52.4917 71.4722 52.5985 71.113C52.7053 70.7537 52.9772 70.6372 53.1811 70.4041L53.2393 70.5303C53.3647 70.6596 53.5048 70.7737 53.6568 70.8702C53.9643 71.0443 54.2899 71.1843 54.6278 71.2877C54.8824 71.3215 55.1403 71.3215 55.3949 71.2877C55.5402 71.2732 55.6866 71.2732 55.8319 71.2877C56.4436 71.3751 57.0747 71.4528 57.6865 71.579C57.7859 71.6008 57.8894 71.5961 57.9865 71.5655C58.0836 71.5348 58.171 71.4792 58.2399 71.4043C58.5103 71.2649 58.7228 71.0347 58.8401 70.754C58.9573 70.4734 58.9717 70.1603 58.8808 69.8701C58.8256 69.6106 58.7867 69.3479 58.7643 69.0836C58.5695 69.0086 58.3606 68.9776 58.1525 68.9927C57.9443 69.0078 57.7421 69.0687 57.5602 69.171C57.3452 69.3104 57.0897 69.3737 56.8345 69.3509C56.5792 69.328 56.3391 69.2202 56.1523 69.0447C55.5355 68.6655 55.082 68.0701 54.8803 67.3746C55.4726 67.6756 55.7251 67.3067 56.0067 66.7726C55.259 66.9474 54.589 67.0833 53.9287 67.2775C53.8628 67.2912 53.8014 67.321 53.7498 67.3643C53.6982 67.4075 53.6581 67.4629 53.6331 67.5254C53.6081 67.5879 53.599 67.6556 53.6065 67.7224C53.614 67.7893 53.638 67.8533 53.6763 67.9087C53.7224 67.9883 53.7459 68.0789 53.7442 68.1709C53.7111 68.3158 53.669 68.4584 53.618 68.5981C53.4238 68.5204 53.1519 68.4816 53.0743 68.3456C52.9966 68.2097 52.8801 67.8407 52.5888 67.7436C52.5644 67.7334 52.5429 67.7174 52.526 67.6972C52.5091 67.6769 52.4973 67.6529 52.4917 67.6271C52.5499 66.9959 51.9965 66.6561 51.7343 66.2289C51.676 66.1124 51.4527 66.0541 51.2973 66.0444C51.0944 66.0433 50.8945 65.9943 50.714 65.9016C50.5335 65.8088 50.3774 65.6747 50.2584 65.5103C50.1625 65.3693 50.0445 65.2447 49.9088 65.1414C49.7049 64.9763 49.4525 64.8695 49.2486 65.1414C49.1955 65.186 49.1528 65.2418 49.1235 65.3047C49.0942 65.3676 49.079 65.4361 49.079 65.5055C49.079 65.5749 49.0942 65.6434 49.1235 65.7063C49.1528 65.7692 49.1955 65.8249 49.2486 65.8696C49.6075 66.2954 50.0638 66.6285 50.5788 66.8406C50.7377 66.913 50.8806 67.0164 50.999 67.1448C51.1174 67.2732 51.2089 67.424 51.2682 67.5883C51.1403 67.6913 50.9901 67.7632 50.8296 67.7981C50.669 67.8331 50.5026 67.8302 50.3434 67.7897C50.1842 67.7492 50.0366 67.6721 49.9123 67.5647C49.788 67.4573 49.6904 67.3224 49.6272 67.1707C49.5018 66.9885 49.3622 66.8164 49.2097 66.6561C48.9558 66.3332 48.6835 66.0252 48.3941 65.7337C47.996 65.3841 47.2192 65.355 47.1318 66.0444C47.1237 66.1182 47.104 66.1903 47.0735 66.258L46.8114 66.1803C46.5884 66.0934 46.3412 66.092 46.1172 66.1762C45.8932 66.2604 45.7082 66.4244 45.5976 66.6367C45.5005 66.792 45.3549 66.9086 45.2481 67.0542C45.1344 67.1622 45.0421 67.2906 44.9762 67.4329C44.9128 67.7095 44.771 67.9619 44.5677 68.1599C44.3645 68.358 44.1085 68.4932 43.8304 68.5495C43.087 68.6828 42.333 68.7479 41.5777 68.7437C41.5008 68.7203 41.431 68.6777 41.375 68.62C41.3189 68.5622 41.2785 68.4912 41.2573 68.4136C41.1987 67.9007 41.1987 67.3827 41.2573 66.8697C41.3067 66.6109 41.4501 66.3795 41.6598 66.22C41.8695 66.0605 42.1308 65.9841 42.3934 66.0055C42.9177 66.0055 43.442 66.0055 43.9664 66.0055C44.1703 66.0055 44.2965 65.9376 44.2771 65.7045C44.2674 65.6142 44.2674 65.523 44.2771 65.4327C44.3839 64.8209 44.3548 64.7433 43.7916 64.4131C43.6265 64.316 43.442 64.2481 43.277 64.151C43.1119 64.0539 43.0925 64.0053 43.1022 63.9373C43.1123 63.889 43.1346 63.8441 43.1668 63.8067C43.1991 63.7693 43.2403 63.7408 43.2867 63.7237C43.4867 63.6685 43.6915 63.6327 43.8984 63.6169C44.307 63.6288 44.7099 63.5188 45.0557 63.301C45.4016 63.0831 45.6747 62.7671 45.8404 62.3935C45.9202 62.1785 46.0592 61.9906 46.2413 61.8514C46.4235 61.7122 46.6413 61.6275 46.8696 61.607C47.6173 61.4904 47.7435 61.2962 47.8406 60.5292C47.8896 60.332 47.9579 60.1401 48.0445 59.9563H48.2096C48.3332 60.2168 48.4371 60.4862 48.5203 60.7622C48.598 61.0826 48.7631 61.2962 49.0835 61.3254C49.3673 61.3594 49.6542 61.3594 49.938 61.3254C50.4332 61.2671 50.909 61.17 51.4042 61.1118C51.5886 61.1118 51.6955 61.1118 51.7537 60.8399C51.812 60.568 52.0353 60.4903 52.2004 60.3253C52.3654 60.1602 52.5888 60.0825 52.5985 59.7621C52.6082 59.4417 53.1131 59.1309 53.3947 59.1698C53.5502 59.2105 53.6851 59.3074 53.7734 59.4417C53.8702 59.6197 53.9451 59.8088 53.9967 60.0048C54.2464 59.7712 54.43 59.4757 54.5289 59.1484C54.6278 58.821 54.6385 58.4733 54.5599 58.1405C54.3602 58.2011 54.1555 58.2434 53.9481 58.2667C53.6683 58.3104 53.3833 58.3104 53.1034 58.2667C52.2878 58.092 52.1324 57.723 52.5985 57.0336C52.7538 56.8006 52.9189 56.3054 52.8509 56.2471C52.5402 56.0238 52.2586 56.3151 52.045 56.5093C51.5173 56.9387 51.1315 57.5174 50.9381 58.1697C50.7897 58.7459 50.5539 59.2961 50.239 59.8009C50.103 60.0145 49.7049 60.1019 49.4136 60.1408C49.2971 60.1408 49.132 59.9077 49.0155 59.7524C48.9058 59.5831 48.8054 59.4081 48.7145 59.228V59.3543L46.9861 59.4417C46.9861 59.3446 46.9279 59.2766 46.9085 59.1989C46.6657 57.9463 46.5492 58.1211 47.7435 57.6453C48.1059 57.4388 48.4335 57.1767 48.7145 56.8685L49.5301 56.15C49.583 56.1132 49.6319 56.0709 49.6758 56.0238C50.4914 54.9265 51.7052 54.7518 52.9286 54.5576C54.0295 54.5163 55.1262 54.7151 56.1426 55.1402C56.6863 55.2858 57.2301 55.4606 57.8807 55.6451C57.0942 56.2762 56.3659 55.6451 55.6765 55.7616V55.849C56.0674 56.2711 56.4859 56.6668 56.9291 57.0336C57.2301 57.2569 57.6865 57.0336 57.7933 56.6355C57.9001 56.2374 57.9583 56.2762 58.2108 56.2762C58.377 56.2728 58.5387 56.2215 58.6764 56.1285C58.8142 56.0355 58.9222 55.9047 58.9876 55.7519C59.1138 55.4897 59.2886 55.3732 59.5702 55.48C59.5702 55.7907 59.6673 55.917 59.9683 55.8199C60.079 55.7839 60.1838 55.7315 60.279 55.6645C60.6357 55.4528 61.0509 55.361 61.4636 55.4023C62.0306 55.3698 62.5898 55.2553 63.124 55.0625C63.2972 54.9774 63.493 54.9494 63.6832 54.9825C63.8734 55.0157 64.0481 55.1082 64.1824 55.247C66.5873 57.752 68.633 60.5786 70.2608 63.646C72.1843 67.2871 73.4809 71.2262 74.0962 75.2979L74.1447 75.3173Z" fill="white"/>
<path d="M16.1378 61.0244L15.8659 62.5877C16.0573 62.5999 16.2485 62.5604 16.4193 62.4732C16.5902 62.3861 16.7344 62.2546 16.8369 62.0924C17.468 61.1894 18.138 60.3058 18.7789 59.4125C18.8847 59.2796 18.982 59.1402 19.0702 58.995C19.2483 58.6516 19.5365 58.378 19.8886 58.2178C20.2406 58.0576 20.6363 58.0201 21.0122 58.1114C21.4588 58.1794 21.7695 58.2765 21.7307 58.8105C21.7307 58.8882 21.9249 59.0241 22.0511 59.0435C22.6417 59.0856 23.231 58.9467 23.7406 58.6454C23.7754 58.7266 23.8014 58.8112 23.8183 58.8979C23.8328 59.014 23.8328 59.1314 23.8183 59.2475C23.7021 59.6854 23.7494 60.1508 23.9513 60.5564C24.1532 60.9621 24.496 61.2803 24.9155 61.4516L25.0903 61.539C24.4455 62.1562 23.6024 62.5244 22.7114 62.5779C22.0975 62.5735 21.4938 62.7345 20.9636 63.044C20.5134 63.2505 20.0494 63.4257 19.5751 63.5684C19.4109 63.6716 19.2608 63.7956 19.1284 63.9373L19.1867 64.0538L20.9442 63.8985C20.8762 64.3257 20.9442 64.5782 21.4006 64.6267C21.5656 64.6267 21.721 64.8598 21.9346 65.0345C21.1675 65.1899 20.7888 66.0055 19.8373 65.8211L20.5849 65.1219C20.2256 64.7335 20.1383 64.6947 19.6722 64.986C19.2061 65.2773 18.7886 65.6366 18.3419 65.957C18.2254 66.0444 18.1186 66.1803 17.9924 66.2094C17.2156 66.3454 16.8369 66.9862 16.3417 67.4911C16.2271 67.6466 16.0818 67.7768 15.9148 67.8737C15.7477 67.9706 15.5625 68.0321 15.3707 68.0543C15.2173 68.0536 15.0688 68.1089 14.9532 68.2097C14.8149 68.329 14.7251 68.4948 14.7007 68.6758C14.7323 69.0018 14.6613 69.3295 14.4977 69.6132C14.3341 69.8969 14.086 70.1225 13.788 70.2585C13.2534 70.5439 12.7406 70.8684 12.2538 71.2295C12.0492 71.4379 11.9121 71.7031 11.8601 71.9906C11.8082 72.278 11.8439 72.5744 11.9625 72.8413C12.0511 73.0314 12.097 73.2385 12.097 73.4482C12.097 73.6579 12.0511 73.865 11.9625 74.055C11.9625 74.1521 11.7004 74.2298 11.5547 74.2395C11.4091 74.2492 11.3217 74.0939 11.2926 73.9871C11.1663 73.5016 11.0886 73.0161 10.9624 72.5112C10.8936 72.3449 10.8091 72.1856 10.71 72.0354L10.6129 72.0839V72.6471L10.5158 72.7151C10.3938 72.5722 10.2641 72.4361 10.1274 72.3073C9.94344 72.13 9.73791 71.9767 9.51564 71.8509C9.40315 71.7956 9.27363 71.7859 9.15418 71.8239C9.03474 71.8619 8.93462 71.9447 8.87478 72.0548C8.63729 72.3618 8.38451 72.6567 8.11741 72.9384C7.91553 72.698 7.70163 72.4679 7.47655 72.249C7.4267 72.2091 7.3687 72.1805 7.30663 72.1654C7.24455 72.1503 7.17992 72.149 7.11729 72.1616C6.65315 72.2373 6.23223 72.4788 5.93268 72.8413C5.61795 73.224 5.26674 73.5753 4.88401 73.89C4.70887 74.0122 4.58518 74.1949 4.53677 74.4028C4.48836 74.6108 4.51865 74.8294 4.62184 75.0163C4.66567 75.1752 4.66567 75.343 4.62184 75.5018C4.53429 75.9574 4.62158 76.4292 4.86631 76.8233C5.11103 77.2174 5.49524 77.5048 5.94239 77.6283C6.17875 77.7091 6.43611 77.7038 6.6689 77.6131C6.90168 77.5225 7.09491 77.3525 7.2144 77.1331C7.31149 76.9195 7.38916 76.6961 7.47655 76.4825C7.49552 76.4185 7.52802 76.3594 7.57184 76.309C7.61565 76.2587 7.66978 76.2183 7.73055 76.1907C7.79131 76.1631 7.85729 76.1488 7.92403 76.1489C7.99077 76.149 8.05672 76.1634 8.11741 76.1912C8.25335 76.2592 8.34073 76.5893 8.3116 76.7835C8.22641 77.1542 8.1128 77.5178 7.97177 77.871C7.84554 78.2691 7.97176 78.4439 8.36016 78.541C8.74855 78.6381 8.98159 78.6381 9.33115 78.677C9.41659 78.6732 9.50174 78.6893 9.57992 78.7239C9.65811 78.7586 9.72718 78.8109 9.78175 78.8768C9.83631 78.9426 9.87488 79.0202 9.89441 79.1035C9.91394 79.1867 9.91391 79.2734 9.89432 79.3566C9.84583 79.8085 9.84583 80.2642 9.89432 80.716C9.96745 80.9883 10.1115 81.2362 10.3118 81.4346C10.387 81.4729 10.4702 81.4929 10.5546 81.4929C10.639 81.4929 10.7222 81.4729 10.7973 81.4346C10.9371 81.3357 11.1005 81.2755 11.2711 81.2602C11.4416 81.2448 11.6131 81.2748 11.7683 81.3472L12.147 81.4443C12.7005 81.5802 12.8558 81.4443 13.2248 81.0753C13.4775 80.8377 13.7658 80.6411 14.0793 80.4927C14.1267 80.4803 14.1764 80.48 14.2239 80.4919C14.2715 80.5037 14.3152 80.5274 14.3512 80.5607C14.3771 80.6013 14.3909 80.6484 14.3909 80.6966C14.3909 80.7448 14.3771 80.792 14.3512 80.8326C14.0502 81.1044 14.2152 81.2404 14.4871 81.3569L15.1474 81.6288C14.7299 80.9491 15.2833 80.716 15.5358 80.3082C15.6378 80.3603 15.7325 80.4256 15.8174 80.5024C16.0012 80.7016 16.2277 80.8566 16.4799 80.9558C16.7322 81.055 17.0036 81.0959 17.2739 81.0753C18.0197 81.0653 18.7391 81.3517 19.2741 81.8715C20.0059 82.5094 20.8881 82.9505 21.8375 83.1532C22.0399 83.1902 22.2317 83.2711 22.3995 83.3902C22.5672 83.5093 22.7068 83.6638 22.8085 83.8426C22.9833 84.1339 23.2066 84.3961 23.3911 84.6777C23.4569 84.7536 23.5027 84.8448 23.5243 84.943C23.5458 85.0412 23.5425 85.1432 23.5145 85.2398C23.4865 85.3363 23.4347 85.4243 23.364 85.4958C23.2933 85.5672 23.2058 85.6197 23.1095 85.6487L22.6628 85.8526C22.7891 86.0856 22.9153 86.1536 23.1386 86.0274C23.2934 85.9319 23.4646 85.866 23.6435 85.8331C23.7815 85.8522 23.9103 85.9132 24.0125 86.0079C24.0125 86.0079 23.9543 86.173 23.9251 86.2604C23.896 86.3478 23.8572 86.474 23.9251 86.4934C24.0073 86.5418 24.1017 86.5654 24.197 86.5614C24.2751 86.5439 24.3462 86.5033 24.4009 86.4449C24.4775 86.3565 24.5722 86.2855 24.6786 86.2369C24.7849 86.1883 24.9005 86.1632 25.0175 86.1632C25.1344 86.1632 25.2501 86.1883 25.3564 86.2369C25.4628 86.2855 25.5575 86.3565 25.6341 86.4449C25.6826 86.4449 25.7797 86.5128 25.7797 86.5614C25.838 87.2022 26.2749 86.9401 26.5565 86.8333C26.6905 86.7786 26.835 86.7546 26.9795 86.763C27.124 86.7714 27.2648 86.812 27.3916 86.8818C28.081 87.1731 28.7801 87.4159 29.4889 87.6489C29.5944 87.6777 29.6879 87.7393 29.756 87.8249C29.8241 87.9104 29.8632 88.0154 29.8676 88.1247C29.94 88.6715 29.8905 89.2276 29.7226 89.7531C29.5547 90.2785 29.2726 90.7603 28.8966 91.1639C28.8447 91.2424 28.7702 91.3033 28.683 91.3387C28.3723 91.4746 28.3431 91.7271 28.3431 92.0184C28.3431 92.7369 28.3431 93.4651 28.2363 94.174C28.1411 94.6163 27.9876 95.044 27.78 95.446C27.6246 95.7761 27.4692 96.1159 26.9449 96.0285C26.7119 96.0285 26.4109 96.2227 26.1778 96.3878C25.7908 96.6271 25.438 96.9178 25.1292 97.252C24.9485 97.5488 24.8296 97.8791 24.7796 98.223C24.6493 98.8455 24.4774 99.4586 24.265 100.058C24.1193 100.408 23.7018 100.631 23.4396 100.932C23.2457 101.202 22.9571 101.389 22.6312 101.456C22.3054 101.522 21.9665 101.464 21.6821 101.291C21.5365 101.719 21.8181 101.981 21.9831 102.262C22.2453 102.719 22.2453 102.709 21.8084 103.02C21.4231 103.324 21.0536 103.648 20.7014 103.991C20.574 104.114 20.4803 104.268 20.4293 104.438C20.3783 104.608 20.3717 104.788 20.4101 104.962C20.4141 105.29 20.3716 105.617 20.2839 105.933C20.2423 106.091 20.2195 106.254 20.216 106.418C20.216 106.739 20.3616 107.059 20.4004 107.389C20.4684 107.933 20.5072 108.477 20.5558 109.011C20.5558 109.215 20.6335 109.351 20.8859 109.37C20.983 109.37 21.1093 109.496 21.1578 109.593C21.3035 109.894 21.42 110.215 21.5559 110.564C21.4714 110.629 21.3748 110.677 21.2717 110.704C21.1686 110.732 21.0611 110.738 20.9554 110.724C20.8497 110.709 20.748 110.674 20.6561 110.62C20.5641 110.566 20.4838 110.494 20.4198 110.409C20.2211 110.038 19.8979 109.749 19.5071 109.593C18.8721 109.319 18.3628 108.817 18.0798 108.185C17.6416 107.569 17.4228 106.824 17.4583 106.069C17.5151 105.809 17.4768 105.538 17.3502 105.304C17.2236 105.071 17.0173 104.891 16.7689 104.797C16.6718 104.797 16.5942 104.564 16.5747 104.437C16.5165 103.903 16.4874 103.369 16.4388 102.835C16.332 101.699 16.196 100.573 16.1281 99.4464C16.1281 98.6017 16.1281 97.7472 16.1281 96.9024C16.1281 96.514 16.1281 96.1353 16.1281 95.7567C16.0881 95.2656 15.9008 94.798 15.5907 94.4151C15.2806 94.0322 14.8621 93.7519 14.39 93.6108C14.1347 93.564 13.9052 93.4258 13.7444 93.2221C13.5836 93.0183 13.5024 92.763 13.5161 92.5039C13.5221 92.2733 13.4622 92.0458 13.3435 91.8481C13.2249 91.6503 13.0523 91.4904 12.8461 91.3872C12.2838 91.0726 11.8583 90.5605 11.6518 89.9501C11.5738 89.7715 11.4617 89.6099 11.3217 89.4744C11.1685 89.3305 11.0556 89.1491 10.9943 88.948C10.933 88.747 10.9253 88.5335 10.9721 88.3286C10.9862 88.0489 10.9667 87.7686 10.9139 87.4935C10.8736 87.3054 10.8573 87.1129 10.8653 86.9207C10.9459 86.3791 11.1449 85.8619 11.4479 85.4059C11.7818 84.9146 12.0587 84.3869 12.2732 83.8329C12.3912 83.5334 12.4065 83.2032 12.3169 82.894C12.2273 82.5849 12.0378 82.3141 11.778 82.124C11.6915 82.0833 11.597 82.0622 11.5013 82.0622C11.4056 82.0622 11.3112 82.0833 11.2246 82.124C11.0448 82.2328 10.8363 82.2845 10.6266 82.2724C10.4168 82.2603 10.2157 82.1848 10.0497 82.056C9.35321 81.6114 8.7817 80.9965 8.38929 80.2694C8.31922 80.1667 8.22163 80.086 8.10771 80.0363C7.93422 79.9791 7.75523 79.94 7.57366 79.9198C7.33083 79.9067 7.09311 79.8449 6.8746 79.7382C6.6561 79.6314 6.46127 79.4819 6.30166 79.2984C6.10787 79.0938 5.86954 78.9365 5.60517 78.8389C5.3408 78.7412 5.05749 78.7057 4.7772 78.7352C4.7002 78.7497 4.62118 78.7497 4.54417 78.7352C3.41321 78.4391 2.38537 77.8378 1.57293 76.9971C1.4481 76.837 1.35994 76.6513 1.31464 76.4534C1.26935 76.2554 1.26803 76.0499 1.31078 75.8514C1.60886 73.585 2.11925 71.3516 2.83522 69.1807C3.9364 65.834 5.5231 62.6671 7.54453 59.7815C8.29219 58.694 9.15636 57.6939 9.96229 56.6452C10.0885 56.4898 10.2147 56.4219 10.3895 56.5481C10.5127 56.6208 10.6494 56.6677 10.7913 56.686C10.9331 56.7044 11.0772 56.6938 11.2149 56.6549C11.8751 56.5772 12.5548 56.6064 13.1568 56.4704C13.9451 56.3049 14.7157 56.0643 15.4581 55.7519C15.7332 55.5963 15.9691 55.3798 16.1475 55.1189C16.3259 54.858 16.4422 54.5597 16.4873 54.2469C16.5359 54.0721 16.5942 53.8973 16.6427 53.7225C16.8369 53.0817 16.8369 53.0817 17.5069 53.237L18.8566 53.538C18.4779 53.674 18.0798 53.8002 17.7011 53.9556C17.4777 54.0429 17.4389 54.1886 17.604 54.3828C17.7691 54.577 18.1186 55.0431 18.4002 55.3538C18.4428 55.3998 18.4961 55.4346 18.5554 55.4549C18.6147 55.4752 18.6782 55.4805 18.74 55.4703C19.2838 55.2478 19.8753 55.1676 20.4587 55.2373C20.3141 55.4974 20.138 55.7387 19.9344 55.9558C19.7244 56.1175 19.4775 56.2243 19.2158 56.2665C18.5458 56.4024 17.8564 56.4898 17.1767 56.5967C17.1395 56.8264 17.021 57.0351 16.8428 57.1849C16.6646 57.3346 16.4385 57.4153 16.2058 57.4123C15.3282 57.5503 14.5054 57.9265 13.8268 58.4998C13.5795 58.6289 13.39 58.8468 13.2964 59.1096C13.2028 59.3725 13.2119 59.661 13.3219 59.9174C13.3899 60.1311 13.4579 60.4029 13.8074 60.2379C13.8657 60.2379 13.9725 60.2379 14.0502 60.3058C14.3706 60.4709 14.691 60.6554 15.0211 60.8204C15.3513 60.9855 15.5649 61.1603 15.9242 61.0438C15.9562 61.0251 15.9919 61.0136 16.0288 61.0103C16.0657 61.0069 16.1029 61.0117 16.1378 61.0244Z" fill="white"/>
<path d="M26.5177 51.9165C27.3527 51.7805 28.1489 51.6737 28.9257 51.5184C29.2584 51.4285 29.5831 51.3116 29.8967 51.1688C30.7323 50.764 31.6608 50.5897 32.5864 50.6639C33.4505 50.7901 34.3244 50.8484 35.1983 50.9164C35.3597 50.9474 35.5263 50.9369 35.6826 50.886C35.8388 50.835 35.9795 50.7452 36.0916 50.6251C36.179 50.5085 36.4218 50.4891 36.5965 50.46C37.2762 50.3532 37.9559 50.227 38.6453 50.159C39.0062 50.1105 39.372 50.1105 39.7328 50.159C40.5679 50.2949 41.4029 50.4503 42.238 50.6056C42.3722 50.6214 42.4979 50.6792 42.5973 50.7707C42.2477 50.7707 41.8982 50.7707 41.5583 50.8484C41.3378 50.8656 41.1214 50.918 40.9174 51.0037C40.6067 51.1591 40.3154 51.3339 40.3057 51.7902C40.3009 52.0164 40.2211 52.2346 40.0787 52.4104C39.9363 52.5861 39.7395 52.7096 39.5192 52.7612C39.0655 52.9347 38.6214 53.1324 38.189 53.3535C37.9559 53.4604 37.9559 53.5866 38.189 53.7128L39.16 54.2468C38.6259 54.4605 38.6259 54.4605 37.519 53.9556L37.9948 54.7323C37.2762 54.9168 36.548 55.1304 35.8101 55.2955C35.1271 55.4229 34.4884 55.7238 33.9555 56.1694C33.4182 56.5455 32.7851 56.7611 32.13 56.7908C31.7901 56.8491 31.5086 56.9171 31.5183 57.3831C31.4745 57.5738 31.3686 57.7446 31.2173 57.8686C31.0366 58.0357 30.8379 58.1823 30.625 58.3056C30.4492 58.4347 30.2407 58.5119 30.0232 58.5284C29.8057 58.5449 29.5879 58.5 29.3947 58.3988C29.2014 58.2977 29.0405 58.1443 28.9301 57.9561C28.8197 57.768 28.7644 57.5526 28.7704 57.3346C28.7366 57.1028 28.7366 56.8673 28.7704 56.6355C28.8355 56.3521 28.9436 56.0803 29.0908 55.8296C29.1591 55.7168 29.248 55.618 29.353 55.5383C29.5778 55.3537 29.7496 55.1126 29.8506 54.8398C29.9517 54.567 29.9784 54.2722 29.928 53.9857C29.8776 53.6991 29.7519 53.4311 29.5639 53.2092C29.3758 52.9872 29.1321 52.8192 28.8578 52.7224C28.3341 52.4054 27.7476 52.2066 27.1391 52.1398C26.9193 52.1067 26.7082 52.0308 26.5177 51.9165Z" fill="white"/>
<path d="M20.1286 52.8875C20.4101 52.402 20.7209 52.2563 21.2064 52.4796C21.4419 52.6039 21.7006 52.6784 21.9662 52.6984C22.2318 52.7185 22.4987 52.6837 22.7502 52.5962L22.8279 52.6836C22.7599 52.7904 22.7017 52.9457 22.6046 52.9943C22.5075 53.0428 22.0997 53.1011 21.8666 53.1885C21.8103 53.2105 21.7594 53.2444 21.7175 53.288C21.6756 53.3316 21.6437 53.3838 21.6239 53.4409C21.6239 53.5089 21.7404 53.6545 21.8278 53.6837L24.7408 54.509C24.7869 54.5329 24.8269 54.5673 24.8572 54.6095C24.8876 54.6516 24.9076 54.7004 24.9155 54.7518C24.911 54.8806 24.8881 55.0081 24.8476 55.1304C24.6922 55.8296 24.8476 56.1014 25.6049 56.1014C25.6095 56.2218 25.5709 56.3397 25.4961 56.4341C25.4213 56.5285 25.3153 56.593 25.1971 56.6161C24.7311 56.7423 24.2261 56.8782 23.8086 57.0336C23.6047 57.1016 23.3814 57.1695 23.4396 57.4802C23.4396 57.5385 23.3911 57.6259 23.3425 57.6744C23.1469 57.8137 22.9127 57.8885 22.6726 57.8885C22.4324 57.8885 22.1982 57.8137 22.0026 57.6744C21.9208 57.5842 21.8648 57.4737 21.8403 57.3544C21.8159 57.2351 21.8239 57.1115 21.8636 56.9964C21.9033 56.8813 21.9732 56.7789 22.0659 56.7001C22.1587 56.6212 22.271 56.5687 22.391 56.5481C22.6628 56.4801 22.9542 56.4607 23.2357 56.383C23.3634 56.3556 23.4751 56.2788 23.5464 56.1694C23.5464 56.1014 23.4591 55.9364 23.3717 55.8587C22.6588 55.2085 21.7341 54.8393 20.7694 54.8197C20.2354 54.8197 19.7013 54.7323 19.1673 54.6741C18.944 54.6741 18.6527 54.6741 18.6332 54.3342C18.6213 54.2618 18.6259 54.1875 18.6468 54.1171C18.6677 54.0467 18.7043 53.982 18.7539 53.9277C18.8034 53.8735 18.8646 53.8313 18.9329 53.8041C19.0011 53.777 19.0746 53.7657 19.1479 53.7711C19.4991 53.7547 19.8492 53.7191 20.1965 53.6643C20.3422 53.6643 20.5752 53.5283 20.5946 53.4215C20.6432 53.1691 20.4878 53.004 20.2062 53.004C20.1965 52.8875 20.1771 52.8875 20.1286 52.8875Z" fill="white"/>
<path d="M65.1436 91.0474C65.4772 91.839 65.5185 92.7235 65.2602 93.5428C64.9689 94.2613 64.7941 95.0381 64.5513 95.7761C64.4675 95.9956 64.3635 96.2069 64.2406 96.4072C63.8716 97.0869 63.8716 97.0869 63.124 96.951C62.9813 96.9039 62.8494 96.8289 62.7359 96.7305C62.6224 96.6321 62.5296 96.5121 62.4628 96.3776C62.3959 96.243 62.3565 96.0965 62.3466 95.9466C62.3368 95.7967 62.3568 95.6463 62.4055 95.5042C62.5959 95.2574 62.7587 94.9904 62.8909 94.708C62.9631 94.3884 62.9631 94.0567 62.8909 93.737C62.8759 93.5161 62.9319 93.2961 63.0506 93.1092C63.1694 92.9223 63.3448 92.7783 63.5512 92.6981C63.6592 92.6754 63.7596 92.6252 63.8425 92.5524C64.2212 92.1737 64.5902 91.795 64.9397 91.4066C65.0213 91.2951 65.0897 91.1746 65.1436 91.0474Z" fill="white"/>
<path d="M29.4792 50.2172C28.8165 50.7284 28.0346 51.0626 27.2071 51.1882C26.0618 51.3779 24.9697 51.8081 24.0028 52.4505C23.6824 52.6447 23.3717 52.8098 23.1386 52.3243C23.0901 52.2369 22.9153 52.1884 22.7988 52.1689C22.4939 52.1378 22.192 52.0826 21.8958 52.0039C21.9817 51.9238 22.0801 51.8582 22.1871 51.8097C22.4395 51.732 22.7017 51.6834 22.9541 51.6155C23.2066 51.5475 23.5562 51.4892 23.663 51.1106C23.698 51.0322 23.7503 50.9627 23.8158 50.9072C23.8814 50.8518 23.9585 50.8117 24.0416 50.7901C24.5466 50.6736 25.0709 50.6056 25.5952 50.5183C25.923 50.5099 26.2488 50.4643 26.5662 50.3823C27.1416 50.1626 27.7577 50.0698 28.3723 50.1104C28.5631 50.1205 28.7543 50.1205 28.9451 50.1104H29.4986L29.4792 50.2172Z" fill="white"/>
<path d="M43.9081 61.2089C43.6848 60.869 43.3644 60.7137 43.141 60.8593C42.4905 61.306 42.4419 61.4225 42.7429 61.8983L41.4612 62.3838C41.3641 61.9371 41.8884 61.5293 41.4612 61.1215C41.5496 60.9722 41.6764 60.8493 41.8284 60.7657C41.9804 60.682 42.152 60.6406 42.3254 60.6457H42.8303C43.1022 60.6457 43.3158 60.5389 43.277 60.199C43.266 60.0951 43.2863 59.9903 43.3352 59.898C43.442 59.7427 43.5586 59.529 43.7139 59.4999C43.8693 59.4708 44.0343 59.6261 44.248 59.733C43.8596 60.1311 44.0246 60.3544 44.3645 60.5292C44.4467 60.5683 44.5171 60.6287 44.5684 60.7039C44.6577 60.9776 44.7817 61.2386 44.9374 61.4807C45.1717 61.6688 45.4337 61.8195 45.7142 61.9274C45.4844 62.1314 45.2411 62.3195 44.9859 62.4906C44.7415 62.6412 44.4766 62.7557 44.1994 62.8304C43.9738 62.8598 43.7453 62.8598 43.5197 62.8304V62.7042L43.9955 62.4032C43.8304 62.1993 43.578 62.0245 43.5586 61.8303C43.5391 61.6361 43.7722 61.4419 43.9081 61.2089Z" fill="white"/>
<path d="M38.0725 56.7714C38.2333 56.6935 38.3986 56.6254 38.5677 56.5675C39.0823 56.4219 39.6066 56.2859 40.131 56.1597C40.3931 56.1014 40.6747 56.1014 40.7621 56.3733C40.8495 56.6452 40.6553 56.7714 40.5193 56.8588C40.2145 57.0584 39.8889 57.2245 39.5484 57.354C39.3965 57.4326 39.2218 57.4552 39.0549 57.4179C38.8881 57.3807 38.7396 57.2858 38.6356 57.1501C38.5288 57.0142 38.3055 56.985 38.1307 56.8977L38.0725 56.7714Z" fill="white"/>
<path d="M23.1289 64.0247C23.5411 63.4342 24.1238 62.9836 24.799 62.7333L24.4592 63.0343C24.6145 63.1023 24.7602 63.1314 24.8282 63.2188C24.8961 63.3062 25.2166 63.6169 25.1777 63.7431C25.1453 63.8767 25.0626 63.9927 24.9468 64.0668C24.8311 64.141 24.6912 64.1676 24.5563 64.1412C24.0999 64.0636 23.6338 64.0636 23.1289 64.0247Z" fill="white"/>
<path d="M57.0261 111.846L56.9678 112.273C52.2618 115.102 46.9894 116.857 41.5269 117.413C36.0645 117.969 30.5466 117.312 25.3672 115.489C20.1878 113.667 15.4746 110.724 11.5639 106.869C7.65319 103.015 4.64145 98.3455 2.74363 93.1933C0.845806 88.041 0.108705 82.5333 0.584917 77.0634C1.06113 71.5934 2.73892 66.2959 5.49854 61.5491C8.25816 56.8023 12.0316 52.7232 16.5494 49.6029C21.0673 46.4826 26.2183 44.3981 31.6347 43.498C28.9958 45.6744 26.5762 48.1037 24.4105 50.7513C23.993 51.266 23.5561 51.8097 23.1483 52.3632C22.7404 52.9166 22.4783 53.2565 22.1773 53.7323C21.8763 54.2081 21.6918 54.4411 21.4587 54.8004C20.5796 56.148 19.7851 57.5489 19.0798 58.995C17.7406 61.7123 16.7926 64.6054 16.2639 67.5883C15.4826 72.1405 15.8633 76.8163 17.3709 81.1822C18.1215 83.3963 19.0976 85.5275 20.2838 87.5422C22.0858 90.6353 24.1624 93.56 26.4885 96.2811C40.5872 112.671 57.0261 111.846 57.0261 111.846Z" fill="url(#paint0_linear_313_56)"/>
<defs>
<linearGradient id="paint0_linear_313_56" x1="42.6943" y1="74.2687" x2="-18.4004" y2="137.568" gradientUnits="userSpaceOnUse">
<stop stop-opacity="0"/>
<stop offset="0.99"/>
</linearGradient>
</defs>
</svg>
